Coordinates
version=1
nRows=10
nColumns=33
inDegrees=yes

Units are S.I. units (second, meters, Newtons, ...)
Angles are in degrees.

endheader
time	ground_thorax_rot_x	ground_thorax_rot_y	ground_thorax_rot_z	ground_thorax_tx	ground_thorax_ty	ground_thorax_tz	clav_prot_r	clav_elev_r	scapula_abduction_r	scapula_elevation_r	scapula_upward_rot_r	scapula_winging_r	shoulder_elv_r	plane_of_elev_r	axial_rot_r	elbow_flexion_r	pro_sup_r	wrist_flex_r	wrist_dev_r	clav_prot_l	clav_elev_l	scapula_abduction_l	scapula_elevation_l	scapula_upward_rot_l	scapula_winging_l	shoulder_elv_l	plane_of_elev_l	axial_rot_l	elbow_flexion_l	pro_sup_l	wrist_flex_l	wrist_dev_l
      8.76000000	    -37.27949370	    -20.29560911	     26.38034524	   -146.66851979	    808.04029598	      7.96416885	      6.62539457	    -38.54352238	     37.10219017	    -45.00000000	     41.15414158	   2866.46902165	  -1579.93993758	    -90.00000000	    -73.89058334	   1800.41563635	    236.38585184	     16.39338064	     12.39079904	     16.15010550	     38.58075583	    -38.93818812	    -45.00000000	    -45.00000000	  -2075.26023538	     70.59222421	     25.55992726	    -12.17530873	   1088.94487119	     14.20670629	     11.64252373	    -19.81568729
      8.77000000	    -37.01333412	    -20.80983126	     27.10039070	   -142.14870173	    806.09741843	      8.01150618	      6.69416175	    -38.50403886	     37.30635490	    -45.00000000	     41.18247181	   2866.23491117	  -1579.95127998	    -90.00000000	    -73.84565737	   1800.42138176	    237.58065522	     16.16258507	     12.19912709	     16.05956372	     38.51274913	    -38.87316241	    -45.00000000	    -45.00000000	  -2075.51179650	     70.41453902	     25.65464537	    -11.97429726	   1088.77102862	     15.20701415	     11.80560853	    -19.76188615
      8.78000000	    -36.67795456	    -21.47030531	     27.96270155	   -137.64293256	    804.13767851	      8.03572272	      6.94136371	    -38.48585132	     37.61793174	    -45.00000000	     40.99548091	   2865.93898049	  -1580.01540028	    -90.00000000	    -73.74954852	   1800.28647250	    238.69029222	     16.03857733	     12.05753097	     16.12677282	     38.58051117	    -38.78321527	    -45.00000000	    -45.00000000	  -2075.74416021	     70.17678552	     25.58989888	    -12.11574299	   1088.59635549	     16.25257937	     11.93364785	    -19.74260966
      8.79000000	    -36.27978909	    -22.24374368	     28.96391680	   -133.16563679	    802.17711804	      8.03828039	      7.43832286	    -38.56666434	     38.02661085	    -45.00000000	     40.54279889	   2865.59729417	  -1580.11169925	    -90.00000000	    -73.62572636	   1800.11005982	    239.66768435	     16.03226998	     11.98522499	     16.28678749	     38.68032150	    -38.68481225	    -45.00000000	    -45.00000000	  -2075.86164030	     69.86017145	     25.51360394	    -12.45123289	   1088.39168459	     17.24310382	     12.13107273	    -19.73742717
      8.80000000	    -35.86687267	    -22.96103131	     29.99349199	   -128.72893204	    800.22904914	      8.02113724	      7.98464243	    -38.71950121	     38.36149452	    -45.00000000	     39.92207673	   2865.23069605	  -1580.20115140	    -90.00000000	    -73.51154407	   1800.00087692	    240.61404248	     16.01575361	     11.91381508	     16.40077697	     38.66828575	    -38.59408831	    -45.00000000	    -45.00000000	  -2075.85921651	     69.43910437	     25.57446948	    -12.82919805	   1088.20068190	     18.21293638	     12.34103169	    -19.74081224
      8.81000000	    -35.47569111	    -23.54539977	     30.81557994	   -124.34164993	    798.30296007	      7.98622632	      7.98154717	    -38.56534881	     38.56271608	    -45.00000000	     39.83661934	   2864.95459427	  -1580.21907711	    -90.00000000	    -73.46635553	   1799.97950420	    241.73871160	     15.68737395	     11.66558848	     16.31974928	     38.69350532	    -38.38935787	    -45.00000000	    -45.00000000	  -2076.29378496	     69.36229106	     25.38948737	    -12.98139304	   1087.99184397	     19.20295269	     12.37088560	    -19.71303313
      8.82000000	    -35.00325981	    -24.21239315	     31.86269039	   -120.02058618	    796.40917798	      7.93601109	      8.54958011	    -38.71578211	     38.78068631	    -45.00000000	     39.20830862	   2864.67875557	  -1580.24583457	    -90.00000000	    -73.41513901	   1799.90910812	    242.81205018	     15.62640562	     11.56039518	     16.33178784	     38.64021870	    -38.23579283	    -45.00000000	    -45.00000000	  -2076.37583664	     68.92001240	     25.42749318	    -13.32087788	   1087.74896249	     20.21550912	     12.56117908	    -19.73182900
      8.83000000	    -34.49305827	    -24.84448496	     32.85138626	   -115.77524594	    794.55095558	      7.87245917	      8.86211852	    -38.71560560	     39.03051285	    -45.00000000	     38.71883373	   2864.39150474	  -1580.26394563	    -90.00000000	    -73.37289454	   1799.82484003	    243.94373329	     15.43013817	     11.37292694	     16.28980644	     38.62058777	    -37.98256097	    -45.00000000	    -45.00000000	  -2076.60967140	     68.64556902	     25.37355125	    -13.60681350	   1087.55169715	     21.20971552	     12.65674392	    -19.74736618
      8.84000000	    -34.06309127	    -25.31225854	     33.62402966	   -111.61937591	    792.73197663	      7.79810776	      8.85118335	    -38.61021474	     39.20744347	    -45.00000000	     38.57364171	   2864.08725871	  -1580.25078698	    -90.00000000	    -73.35964754	   1799.72838381	    245.22127397	     15.13722193	     11.12625235	     16.29012527	     38.67080070	    -37.80500464	    -45.00000000	    -45.00000000	  -2077.01143406	     68.44697665	     25.18280959	    -13.75927988	   1087.37450489	     22.22933536	     12.68304814	    -19.77172462
      8.85000000	    -33.50629692	    -25.93410656	     34.64374531	   -107.56518748	    790.95413204	      7.71489506	      9.23556674	    -38.63424593	     39.42769280	    -45.00000000	     38.05489299	   2863.82333007	  -1580.31131168	    -90.00000000	    -73.27356390	   1799.60937924	    246.47649902	     14.98260677	     10.95548378	     16.23150511	     38.62432072	    -37.52893461	    -45.00000000	    -45.00000000	  -2077.25474614	     68.16864133	     25.11518008	    -14.00021269	   1087.06149699	     23.26038856	     12.80435837	    -19.79468038
